<?xml version="1.0" standalone="no"?>
<!DOCTYPE svg PUBLIC "-//W3C//DTD SVG 20010904//EN"
 "http://www.w3.org/TR/2001/REC-SVG-20010904/DTD/svg10.dtd">
<svg version="1.0" xmlns="http://www.w3.org/2000/svg"
 width="988.000000pt" height="988.000000pt" viewBox="0 0 988.000000 988.000000"
 preserveAspectRatio="xMidYMid meet">
<metadata>
Created by potrace 1.14, written by Peter Selinger 2001-2017
</metadata>
<g transform="translate(0.000000,988.000000) scale(0.100000,-0.100000)"
fill="#000000" stroke="none">
<path d="M4877 9764 c-8 -8 -24 -12 -69 -16 -16 -1 -28 -5 -28 -9 0 -4 -8 -6
-17 -4 -10 1 -34 -6 -53 -15 -19 -10 -39 -19 -45 -20 -25 -6 -48 -18 -165 -87
-69 -40 -132 -78 -140 -83 -8 -6 -22 -13 -30 -17 -8 -3 -26 -15 -39 -25 -13
-10 -27 -15 -32 -12 -5 3 -9 1 -9 -5 0 -6 -17 -18 -37 -28 -21 -9 -43 -22 -50
-28 -6 -5 -62 -39 -123 -75 -61 -36 -133 -77 -158 -93 -26 -15 -55 -30 -64
-33 -10 -4 -18 -11 -18 -16 0 -5 -4 -6 -10 -3 -5 3 -10 2 -10 -3 0 -5 -8 -12
-17 -16 -10 -3 -34 -15 -53 -27 -19 -12 -44 -27 -55 -33 -11 -6 -38 -23 -60
-36 -22 -14 -53 -32 -70 -40 -16 -8 -36 -21 -43 -27 -7 -7 -20 -13 -27 -13 -8
0 -19 -8 -24 -17 -6 -10 -11 -13 -11 -8 0 6 -4 4 -9 -3 -4 -7 -17 -14 -29 -15
-11 0 -19 -4 -17 -7 4 -6 -26 -24 -106 -65 -10 -5 -19 -13 -19 -17 0 -5 -6 -8
-14 -8 -8 0 -21 -6 -28 -12 -22 -21 -56 -38 -75 -38 -9 0 -13 -3 -10 -7 4 -3
-3 -11 -16 -18 -55 -29 -104 -58 -132 -76 -16 -10 -44 -26 -62 -34 -17 -8 -34
-19 -37 -24 -3 -5 -25 -18 -48 -30 -47 -23 -80 -43 -88 -52 -3 -3 -20 -12 -37
-20 -18 -8 -33 -17 -33 -21 0 -5 -6 -8 -14 -8 -7 0 -19 -7 -26 -15 -7 -8 -21
-15 -31 -15 -11 0 -19 -4 -19 -8 0 -5 -12 -15 -27 -23 -16 -7 -67 -38 -115
-67 -50 -31 -92 -50 -99 -46 -7 4 -9 3 -5 -4 6 -10 -26 -30 -144 -93 -25 -13
-47 -27 -50 -30 -3 -4 -24 -17 -48 -30 -24 -13 -51 -29 -60 -34 -9 -6 -39 -23
-67 -39 -27 -16 -57 -36 -67 -43 -9 -8 -23 -16 -32 -17 -8 -1 -23 -9 -33 -18
-10 -8 -48 -32 -85 -52 -37 -21 -70 -42 -74 -47 -3 -5 -9 -7 -14 -4 -4 3 -13
-2 -20 -10 -7 -8 -16 -15 -21 -15 -4 0 -28 -13 -52 -30 -25 -16 -49 -30 -54
-30 -6 0 -20 -9 -33 -20 -13 -11 -28 -20 -35 -20 -6 0 -20 -8 -31 -18 -10 -9
-38 -26 -61 -37 -24 -11 -43 -23 -43 -27 0 -5 -7 -8 -15 -8 -8 0 -15 -4 -15
-10 0 -5 -3 -9 -8 -8 -4 1 -26 -10 -49 -25 -24 -15 -45 -27 -47 -27 -11 0
-123 -83 -160 -119 -47 -44 -88 -91 -81 -91 3 0 -3 -10 -15 -22 -11 -12 -20
-26 -20 -30 0 -5 -5 -6 -12 -2 -7 4 -8 3 -4 -4 9 -15 -12 -54 -24 -47 -6 3 -7
-1 -4 -9 3 -8 -1 -28 -10 -44 -8 -16 -12 -32 -9 -36 4 -3 1 -6 -6 -6 -7 0 -10
-4 -6 -9 3 -5 1 -12 -4 -15 -5 -4 -8 -14 -6 -24 1 -9 -1 -21 -5 -27 -16 -20
-30 -241 -17 -262 4 -5 4 -13 0 -17 -5 -5 -8 -255 -2 -282 1 -5 0 -13 -1 -19
-3 -13 -2 -126 0 -140 1 -5 1 -14 0 -20 -3 -13 -2 -126 0 -140 1 -5 1 -14 0
-20 -3 -13 -2 -126 0 -140 1 -5 2 -14 1 -20 -3 -14 -3 -1408 -1 -1420 2 -6 1
-14 0 -20 -3 -13 -2 -126 0 -140 1 -5 1 -14 0 -20 -3 -13 -2 -126 0 -140 1 -5
1 -14 0 -20 -3 -13 -2 -126 0 -140 1 -5 2 -14 1 -20 -6 -30 -1 -1298 5 -1340
3 -27 7 -59 8 -70 1 -11 8 -31 15 -45 8 -14 13 -26 11 -28 -7 -7 74 -171 82
-166 4 3 8 -1 8 -9 0 -7 9 -23 20 -35 11 -12 20 -24 20 -27 0 -5 58 -61 115
-109 17 -14 36 -26 43 -26 7 0 10 -4 7 -10 -3 -5 1 -10 10 -10 9 0 14 -4 11
-9 -4 -5 3 -7 14 -4 11 3 20 0 20 -6 0 -6 16 -17 36 -26 19 -8 33 -18 30 -23
-2 -4 5 -9 17 -9 11 -1 33 -11 48 -23 16 -11 33 -20 39 -20 5 0 10 -4 10 -9 0
-5 9 -11 21 -14 12 -3 18 -10 14 -16 -4 -7 0 -8 10 -4 10 3 20 2 24 -3 3 -5
24 -19 46 -31 22 -13 39 -28 37 -34 -1 -6 2 -8 7 -5 10 7 104 -41 109 -56 2
-4 12 -8 23 -8 10 0 19 -3 19 -8 0 -4 20 -18 45 -31 25 -13 45 -28 45 -33 0
-5 3 -7 8 -5 10 7 73 -29 65 -37 -3 -3 1 -6 10 -6 10 0 17 -5 17 -11 0 -5 4
-8 9 -5 5 3 19 -3 32 -13 13 -10 34 -21 47 -25 13 -5 20 -12 16 -19 -4 -7 -4
-9 1 -5 8 8 105 -39 105 -51 0 -4 16 -13 35 -20 19 -7 35 -17 35 -22 0 -5 6
-8 13 -7 6 2 11 -5 10 -16 -1 -13 2 -15 10 -7 16 16 27 14 27 -5 0 -8 4 -13 9
-10 4 3 28 -7 52 -22 89 -57 104 -66 109 -67 22 -3 119 -69 113 -77 -3 -7 -1
-8 5 -4 11 6 50 -8 62 -23 3 -3 17 -12 32 -20 15 -8 25 -19 21 -24 -3 -6 -1
-7 5 -4 10 7 184 -89 190 -105 2 -4 7 -6 12 -3 4 3 13 -2 20 -10 7 -8 17 -15
21 -15 5 0 38 -18 73 -40 35 -22 68 -40 73 -40 16 0 53 -36 46 -44 -4 -4 0 -4
9 -1 8 3 22 -1 31 -9 8 -8 17 -12 21 -9 3 3 8 -2 12 -11 3 -9 10 -14 14 -11 5
3 14 -1 22 -7 7 -7 34 -24 60 -37 27 -13 48 -28 48 -33 0 -5 5 -6 10 -3 6 3
10 2 10 -2 0 -5 19 -17 42 -27 22 -11 49 -26 60 -35 10 -9 20 -14 21 -11 1 3
9 -1 17 -8 21 -18 131 -82 141 -82 5 0 9 -4 9 -9 0 -5 15 -15 33 -22 17 -7 51
-26 73 -41 23 -15 46 -28 51 -28 6 0 22 -11 37 -25 14 -13 26 -22 26 -19 0 6
57 -24 80 -42 8 -7 32 -21 53 -33 20 -12 52 -30 71 -40 18 -11 44 -25 57 -33
13 -7 26 -15 29 -18 3 -3 15 -11 28 -17 12 -7 32 -19 45 -25 12 -7 24 -15 27
-18 3 -3 25 -16 50 -29 25 -14 47 -27 50 -30 3 -4 23 -15 45 -26 42 -21 102
-58 122 -75 7 -5 17 -10 22 -10 12 0 103 -60 113 -74 4 -6 8 -7 8 -3 0 4 20
-3 44 -17 24 -13 47 -22 50 -19 3 4 6 0 6 -7 0 -7 3 -10 7 -7 3 4 11 2 18 -3
6 -5 26 -10 43 -12 18 -1 32 -5 32 -8 0 -7 -1 -7 90 -14 36 -3 74 -7 85 -9 11
-3 26 0 33 6 10 8 16 7 22 -2 6 -10 9 -10 15 -1 4 6 13 9 20 6 7 -2 16 -2 20
2 3 4 12 7 18 7 29 2 93 19 105 28 6 5 12 7 12 4 0 -7 171 84 197 105 7 5 18
6 24 2 7 -4 9 -3 6 3 -8 13 20 26 35 16 7 -4 8 -1 4 6 -5 8 0 14 13 18 12 3
21 9 21 14 0 5 7 9 15 9 8 0 15 5 15 12 0 6 3 8 6 5 4 -4 19 2 34 13 16 11 33
20 39 20 6 0 11 4 11 9 0 5 24 21 53 35 76 40 121 67 129 80 4 6 8 7 8 2 0 -5
8 -2 18 7 10 10 22 14 25 11 4 -4 9 1 13 10 3 9 12 16 19 16 8 0 20 6 27 13 7
6 27 19 43 27 17 8 47 25 67 38 21 14 42 21 49 16 8 -5 9 -3 5 5 -5 8 0 14 13
18 12 3 21 10 21 15 0 6 7 8 15 4 8 -3 15 -1 15 4 0 8 52 41 65 40 3 0 14 9
26 21 11 11 27 18 35 15 8 -3 13 -2 10 3 -5 8 74 57 87 53 4 -1 7 2 7 7 0 5
14 14 30 21 16 7 30 16 30 21 0 5 9 9 20 9 11 0 20 4 20 8 0 8 55 38 55 30 0
-1 10 6 22 17 12 11 45 33 75 48 62 32 84 46 117 69 13 10 27 15 32 12 5 -3 9
0 9 6 0 6 8 13 18 17 9 4 36 19 60 35 23 16 42 26 42 22 0 -3 16 6 35 20 24
18 43 25 58 22 12 -3 16 -3 10 0 -22 10 -15 18 32 39 25 11 45 22 45 25 0 4
16 12 35 20 19 8 35 17 35 22 0 4 7 8 15 8 8 0 15 4 15 10 0 5 11 12 25 16 14
3 25 10 25 16 0 5 5 6 10 3 6 -3 10 -2 10 3 0 5 18 17 40 27 22 10 40 23 40
28 0 6 3 8 6 4 3 -3 30 10 59 28 29 19 59 36 66 37 7 2 20 11 30 20 10 10 33
24 51 33 45 21 89 47 106 63 7 7 18 10 23 7 5 -4 9 -2 9 4 0 5 11 16 24 23 13
7 51 28 84 47 34 18 64 32 67 30 4 -2 11 4 16 13 6 10 15 18 20 18 6 0 17 7
26 16 9 8 23 12 31 9 9 -3 13 -3 9 1 -7 7 95 74 114 74 5 0 9 5 9 10 0 6 5 10
10 10 6 0 35 15 65 34 29 19 56 32 59 29 3 -4 6 -1 6 5 0 7 7 12 15 12 8 0 15
5 15 10 0 6 6 10 14 10 8 0 27 11 43 24 15 13 39 27 53 31 14 4 27 11 30 16 3
4 12 9 19 11 8 2 23 11 33 20 10 10 25 18 33 18 8 0 15 5 15 10 0 6 7 10 15
10 8 0 15 5 15 11 0 5 4 8 9 5 5 -3 14 1 21 9 7 8 19 15 26 15 8 0 14 5 14 11
0 6 7 8 16 5 8 -3 13 -2 10 3 -7 10 42 33 55 25 5 -3 8 0 7 7 -2 6 15 21 37
33 22 12 46 27 53 34 7 6 17 12 21 12 5 0 20 12 35 26 14 15 26 24 26 21 0 -3
17 11 38 31 21 20 37 40 35 44 -2 5 0 8 6 8 6 0 17 12 25 28 8 15 15 23 16 17
0 -12 36 49 51 88 6 15 15 27 21 27 5 0 6 5 3 10 -3 6 -1 10 6 10 7 0 10 3 6
6 -3 3 3 26 14 51 10 25 17 48 15 52 -3 4 1 20 9 35 13 24 14 329 12 2184 -2
1186 -6 2175 -11 2197 -4 22 -12 44 -17 49 -5 6 -9 16 -9 23 0 18 -42 107 -52
111 -5 2 -6 7 -4 11 3 4 -13 31 -35 59 -21 29 -39 54 -39 57 0 10 -116 115
-127 115 -7 0 -16 6 -20 13 -9 14 -41 35 -65 43 -10 4 -18 11 -18 16 0 5 -4 6
-10 3 -5 -3 -10 -1 -10 4 0 6 -6 11 -14 11 -7 0 -19 7 -26 15 -7 8 -21 15 -31
15 -11 0 -19 4 -19 9 0 5 -15 16 -32 25 -18 9 -46 24 -63 34 -137 80 -175 104
-175 112 0 5 -7 7 -15 4 -8 -4 -15 -2 -15 4 0 5 -8 12 -17 15 -26 9 -107 58
-114 69 -3 5 -9 9 -13 9 -6 -1 -56 24 -91 46 -11 7 -32 18 -47 25 -16 7 -28
16 -28 20 0 4 -7 8 -15 8 -8 0 -15 5 -15 10 0 6 -6 10 -14 10 -7 0 -19 7 -26
15 -7 8 -16 12 -21 9 -5 -3 -9 -2 -9 3 0 4 -21 19 -47 33 -27 13 -50 27 -53
30 -3 3 -16 11 -30 19 -14 8 -63 37 -110 64 -47 27 -98 57 -115 67 -122 70
-161 95 -167 104 -4 6 -8 7 -8 3 0 -5 -13 1 -29 12 -16 12 -34 21 -40 21 -6 0
-11 5 -11 10 0 6 -6 10 -14 10 -7 0 -19 7 -26 15 -7 8 -16 12 -21 9 -5 -3 -9
0 -9 5 0 6 -7 11 -15 11 -8 0 -15 5 -15 10 0 6 -7 10 -15 10 -8 0 -23 7 -32
15 -10 8 -22 15 -27 14 -5 0 -12 3 -15 8 -7 9 -138 89 -186 113 -38 19 -56 36
-47 45 4 5 2 5 -5 2 -9 -6 -67 17 -83 33 -3 3 -22 14 -42 25 -21 11 -38 23
-38 28 0 4 -4 6 -9 2 -5 -3 -12 -1 -16 5 -3 6 -25 20 -48 31 -23 12 -44 25
-47 28 -3 4 -21 15 -40 24 -19 10 -48 27 -65 37 -16 11 -42 25 -57 31 -16 6
-28 15 -28 21 0 5 -4 7 -9 3 -6 -3 -13 0 -18 8 -4 7 -19 18 -33 24 -14 7 -47
26 -75 43 -27 17 -57 33 -65 37 -8 4 -17 9 -20 13 -3 3 -26 17 -52 30 -27 14
-48 28 -48 32 0 5 -6 8 -14 8 -8 0 -21 6 -28 13 -8 6 -38 25 -68 41 -30 16
-57 32 -60 35 -3 4 -16 12 -30 19 -14 6 -32 16 -40 22 -8 5 -56 34 -107 64
-51 29 -89 57 -85 61 4 5 2 6 -3 2 -6 -3 -29 5 -50 18 -22 13 -50 29 -62 34
-13 6 -23 15 -23 21 0 6 -4 9 -8 6 -5 -3 -25 6 -45 19 -20 14 -38 25 -41 25
-3 0 -29 15 -58 33 -89 56 -202 98 -298 112 -44 6 -68 6 -122 1 -15 -1 -29 2
-31 7 -1 4 -6 5 -10 1z"/>
<path d="M2470 1480 c0 -5 5 -10 11 -10 5 0 7 5 4 10 -3 6 -8 10 -11 10 -2 0
-4 -4 -4 -10z"/>
</g>
</svg>
